# xmcd
#
# Track frame offsets:
#	150
#	17085
#	31304
#	48992
#	72471
#	86604
#	101014
#	118371
#	138433
#	154313
#
# Disc length: 2373 seconds
#
# Revision: 1
# Processed by: cddbd v1.5.2PL0 Copyright (c) Steve Scherf et al.
# Submitted via: audiograbber 1.81.03
#
DISCID=8a09430a
DTITLE=The Son`Roberts Band - You Don't Know Yet
DYEAR=2007
DGENRE=Blues
TTITLE0=Wish I Knew You Better
TTITLE1=More My Mojo
TTITLE2=St. Joseph Blvd
TTITLE3=My Sun Is Shing On You
TTITLE4=You Don't Know Yet
TTITLE5=Fell For That Line
TTITLE6=Sometimes
TTITLE7=Lorraine
TTITLE8=Stop Asking Why
TTITLE9=Forty Bucks And A Beer
EXTD=
EXTT0=
EXTT1=
EXTT2=
EXTT3=
EXTT4=
EXTT5=
EXTT6=
EXTT7=
EXTT8=
EXTT9=
PLAYORDER=
